<?xml version="1.0" encoding="utf-8"?>
<svg viewBox="0 0 500 500" width="500" height="500" xmlns="http://www.w3.org/2000/svg">
  <path style="stroke: rgb(255, 255, 255); fill: rgb(255, 255, 255); fill-rule: evenodd;" d="M 499.966 358.041 C 501.616 397.113 443.502 414.471 419.854 385.667 C 399.071 360.353 361.866 305.91 349.966 308.041 C 314.144 314.456 278.624 317.943 250 316.831 C 221.376 317.943 185.856 314.456 150.034 308.041 C 138.134 305.91 100.929 360.353 80.146 385.667 C 56.498 414.471 -1.616 397.113 0.034 358.041 C 3.62 273.133 32.039 183.18 50 123.905 C 55.223 106.668 81.715 100 100 100 C 178.855 100 188.814 115.409 200 124.179 C 214.093 135.229 215.804 132.112 250 133.441 C 284.196 132.112 285.907 135.229 300 124.179 C 311.186 115.409 321.145 100 400 100 C 418.285 100 444.777 106.668 450 123.905 C 467.961 183.18 496.38 273.133 499.966 358.041 Z M 421.179 184.394 C 412.587 175.802 398.657 175.802 390.066 184.394 C 381.474 192.986 381.475 206.915 390.066 215.507 C 398.657 224.098 412.587 224.099 421.179 215.507 C 429.77 206.915 429.77 192.985 421.179 184.394 Z M 386.179 149.394 C 377.587 140.802 363.657 140.802 355.066 149.394 C 346.474 157.986 346.475 171.915 355.066 180.506 C 363.657 189.098 377.587 189.098 386.179 180.506 C 394.77 171.915 394.77 157.985 386.179 149.394 Z M 351.178 184.394 C 342.587 175.802 328.657 175.802 320.066 184.394 C 311.474 192.986 311.474 206.915 320.066 215.507 C 328.657 224.098 342.586 224.099 351.178 215.507 C 359.77 206.915 359.77 192.985 351.178 184.394 Z M 386.179 219.394 C 377.587 210.803 363.657 210.803 355.066 219.394 C 346.474 227.986 346.475 241.915 355.066 250.507 C 363.657 259.098 377.587 259.099 386.179 250.507 C 394.77 241.915 394.77 227.985 386.179 219.394 Z M 122.9 172.9 C 122.9 172.9 99.062 145.829 95.8 145.8 C 94.169 145.787 68.686 171.27 68.699 172.9 C 68.728 176.162 95.8 200.001 95.8 200.001 C 95.8 200.001 68.672 223.839 68.7 227.101 C 68.727 230.363 92.538 254.173 95.8 254.201 C 99.061 254.229 122.9 227.101 122.9 227.101 C 122.9 227.101 146.74 254.172 150 254.201 C 153.263 254.23 177.13 230.363 177.101 227.101 C 177.072 223.84 150 200 150 200 C 150 200 177.129 176.162 177.1 172.9 C 177.072 169.638 153.262 145.828 150 145.8 C 146.739 145.772 122.9 172.9 122.9 172.9 Z"/>
  <path d="M 575.503 416.421 C 577.705 414.22 581.336 413.097 584.844 413.097 C 588.352 413.097 591.983 414.22 594.185 416.421 C 598.562 420.799 594.978 447.605 594.409 452.146 C 598.948 451.586 625.755 447.993 630.132 452.369 C 632.333 454.571 633.456 458.202 633.456 461.71 C 633.456 465.218 632.333 468.849 630.132 471.051 C 625.755 475.427 598.949 471.844 594.408 471.275 C 594.968 475.813 598.561 502.621 594.185 506.998 C 591.983 509.199 588.352 510.322 584.844 510.322 C 581.336 510.322 577.705 509.199 575.503 506.998 C 571.127 502.621 574.71 475.815 575.279 471.274 C 570.741 471.834 543.933 475.428 539.555 471.051 C 538.389 469.884 537.821 465.707 537.821 461.71 C 537.821 457.713 538.389 453.536 539.555 452.369 C 543.933 447.992 570.739 451.576 575.28 452.145 C 574.72 447.606 571.126 420.799 575.503 416.421 Z M 576.353 452.657 L 576.441 453.306 L 575.791 453.219 C 575.791 453.219 544.359 448.98 540.263 453.077 C 539.311 454.028 538.821 457.779 538.821 461.71 C 538.821 465.641 539.311 469.392 540.263 470.343 C 544.359 474.44 575.791 470.201 575.791 470.201 L 576.44 470.113 L 576.353 470.763 C 576.353 470.763 572.115 502.195 576.211 506.29 C 578.246 508.326 581.483 509.322 584.844 509.322 C 588.205 509.322 591.442 508.326 593.477 506.29 C 597.573 502.195 593.335 470.763 593.335 470.763 L 593.247 470.114 L 593.897 470.201 C 593.897 470.201 625.329 474.439 629.424 470.343 C 631.46 468.308 632.456 465.071 632.456 461.71 C 632.456 458.349 631.46 455.112 629.424 453.077 C 625.329 448.981 593.897 453.219 593.897 453.219 L 593.248 453.307 L 593.335 452.657 C 593.335 452.657 597.574 421.225 593.477 417.129 C 591.442 415.093 588.205 414.097 584.844 414.097 C 581.483 414.097 578.246 415.093 576.211 417.129 C 572.114 421.225 576.353 452.657 576.353 452.657 Z" style="fill: none;" transform="matrix(0.707107, 0.707107, -0.707107, 0.707107, 40.049565, -553.571965)"/>
  <path d="M 575.503 416.421 C 577.705 414.22 581.336 413.097 584.844 413.097 C 588.352 413.097 591.983 414.22 594.185 416.421 C 598.562 420.799 594.978 447.605 594.409 452.146 C 598.948 451.586 625.755 447.993 630.132 452.369 C 632.333 454.571 633.456 458.202 633.456 461.71 C 633.456 465.218 632.333 468.849 630.132 471.051 C 625.755 475.427 598.949 471.844 594.408 471.275 C 594.968 475.813 598.561 502.621 594.185 506.998 C 591.983 509.199 588.352 510.322 584.844 510.322 C 581.336 510.322 577.705 509.199 575.503 506.998 C 571.127 502.621 574.71 475.815 575.279 471.274 C 570.741 471.834 543.933 475.428 539.555 471.051 C 538.389 469.884 537.821 465.707 537.821 461.71 C 537.821 457.713 538.389 453.536 539.555 452.369 C 543.933 447.992 570.739 451.576 575.28 452.145 C 574.72 447.606 571.126 420.799 575.503 416.421 Z M 576.353 452.657 L 576.441 453.306 L 575.791 453.219 C 575.791 453.219 544.359 448.98 540.263 453.077 C 539.311 454.028 538.821 457.779 538.821 461.71 C 538.821 465.641 539.311 469.392 540.263 470.343 C 544.359 474.44 575.791 470.201 575.791 470.201 L 576.44 470.113 L 576.353 470.763 C 576.353 470.763 572.115 502.195 576.211 506.29 C 578.246 508.326 581.483 509.322 584.844 509.322 C 588.205 509.322 591.442 508.326 593.477 506.29 C 597.573 502.195 593.335 470.763 593.335 470.763 L 593.247 470.114 L 593.897 470.201 C 593.897 470.201 625.329 474.439 629.424 470.343 C 631.46 468.308 632.456 465.071 632.456 461.71 C 632.456 458.349 631.46 455.112 629.424 453.077 C 625.329 448.981 593.897 453.219 593.897 453.219 L 593.248 453.307 L 593.335 452.657 C 593.335 452.657 597.574 421.225 593.477 417.129 C 591.442 415.093 588.205 414.097 584.844 414.097 C 581.483 414.097 578.246 415.093 576.211 417.129 C 572.114 421.225 576.353 452.657 576.353 452.657 Z" style="fill: none;" transform="matrix(0.707107, 0.707107, -0.707107, 0.707107, 40.049565, -553.571965)"/>
  <path d="M 575.503 416.421 C 577.705 414.22 581.336 413.097 584.844 413.097 C 588.352 413.097 591.983 414.22 594.185 416.421 C 596.428 418.665 596.449 423.42 595.915 427.417 C 595.38 431.422 594.487 434.302 594.331 434.823 L 594.331 452.223 L 611.731 452.223 C 612.253 452.067 615.132 451.174 619.137 450.639 C 623.133 450.105 627.889 450.126 630.132 452.369 C 632.333 454.571 633.456 458.202 633.456 461.71 C 633.456 465.218 632.333 468.849 630.132 471.051 C 627.889 473.294 623.133 473.315 619.137 472.781 C 615.132 472.246 612.252 471.353 611.731 471.197 L 594.331 471.197 L 594.331 488.597 C 594.487 489.119 595.38 491.998 595.915 496.003 C 596.449 499.999 596.428 504.755 594.185 506.998 C 591.941 509.241 587.186 509.262 583.189 508.728 C 579.184 508.193 575.71 507.122 575.71 507.122 L 575.357 507.013 L 575.357 471.197 L 557.957 471.197 C 557.435 471.353 554.556 472.246 550.551 472.781 C 546.554 473.315 541.799 473.294 539.555 471.051 C 538.389 469.884 537.821 465.707 537.821 461.71 C 537.821 457.713 538.389 453.536 539.555 452.369 C 541.799 450.126 546.554 450.105 550.551 450.639 C 554.556 451.174 557.436 452.067 557.957 452.223 L 575.357 452.223 L 575.357 434.823 C 575.201 434.301 574.308 431.422 573.773 427.417 C 573.239 423.42 573.26 418.665 575.503 416.421 Z M 574.764 427.285 C 575.288 431.208 576.335 434.602 576.335 434.602 L 576.357 434.673 L 576.357 453.223 L 557.808 453.223 L 557.736 453.201 C 557.736 453.201 554.342 452.154 550.419 451.63 C 546.488 451.104 542.256 451.083 540.263 453.077 C 539.311 454.028 538.821 457.779 538.821 461.71 C 538.821 465.641 539.311 469.392 540.263 470.343 C 542.256 472.337 546.488 472.316 550.419 471.79 C 554.341 471.266 557.736 470.219 557.736 470.219 L 557.807 470.197 L 576.357 470.197 L 576.357 506.27 C 577.322 506.548 579.399 507.213 583.321 507.737 C 587.252 508.263 591.484 508.284 593.477 506.29 C 595.47 504.297 595.449 500.066 594.924 496.135 C 594.4 492.212 593.353 488.818 593.353 488.818 L 593.331 488.747 L 593.331 470.197 L 611.88 470.197 L 611.952 470.219 C 611.952 470.219 615.346 471.266 619.269 471.79 C 623.2 472.315 627.431 472.336 629.424 470.343 C 631.46 468.308 632.456 465.071 632.456 461.71 C 632.456 458.349 631.46 455.112 629.424 453.077 C 627.431 451.084 623.2 451.105 619.269 451.63 C 615.346 452.154 611.952 453.201 611.952 453.201 L 611.881 453.223 L 593.331 453.223 L 593.331 434.674 L 593.353 434.602 C 593.353 434.602 594.4 431.207 594.924 427.285 C 595.45 423.354 595.471 419.122 593.477 417.129 C 591.442 415.093 588.205 414.097 584.844 414.097 C 581.483 414.097 578.246 415.093 576.211 417.129 C 574.217 419.122 574.238 423.354 574.764 427.285 Z" style="fill: none;" transform="matrix(0.707107, 0.707107, -0.707107, 0.707107, 40.049565, -553.571965)"/>
  <path d="M 575.503 416.421 C 577.705 414.22 581.336 413.097 584.844 413.097 C 588.352 413.097 591.983 414.22 594.185 416.421 C 596.428 418.665 596.449 423.42 595.915 427.417 C 595.38 431.422 594.487 434.302 594.331 434.823 L 594.331 452.223 L 630.278 452.223 L 630.278 471.197 L 594.331 471.197 L 594.331 507.144 L 575.357 507.144 L 575.357 471.197 L 557.957 471.197 C 557.435 471.353 554.556 472.246 550.551 472.781 C 546.554 473.315 541.799 473.294 539.555 471.051 C 538.389 469.884 537.821 465.707 537.821 461.71 C 537.821 457.713 538.389 453.536 539.555 452.369 C 541.799 450.126 546.554 450.105 550.551 450.639 C 554.556 451.174 557.436 452.067 557.957 452.223 L 575.357 452.223 L 575.357 434.823 C 575.201 434.301 574.308 431.422 573.773 427.417 C 573.239 423.42 573.26 418.665 575.503 416.421 Z M 574.764 427.285 C 575.288 431.208 576.335 434.602 576.335 434.602 L 576.357 434.673 L 576.357 453.223 L 557.808 453.223 L 557.736 453.201 C 557.736 453.201 554.342 452.154 550.419 451.63 C 546.488 451.104 542.256 451.083 540.263 453.077 C 539.311 454.028 538.821 457.779 538.821 461.71 C 538.821 465.641 539.311 469.392 540.263 470.343 C 542.256 472.337 546.488 472.316 550.419 471.79 C 554.341 471.266 557.736 470.219 557.736 470.219 L 557.807 470.197 L 576.357 470.197 L 576.357 506.144 L 593.331 506.144 L 593.331 470.197 L 629.278 470.197 L 629.278 453.223 L 593.331 453.223 L 593.331 434.674 L 593.353 434.602 C 593.353 434.602 594.4 431.208 594.924 427.285 C 595.45 423.354 595.471 419.122 593.477 417.129 C 591.442 415.093 588.205 414.097 584.844 414.097 C 581.483 414.097 578.246 415.093 576.211 417.129 C 574.217 419.122 574.238 423.354 574.764 427.285 Z" style="fill: none;" transform="matrix(0.707107, 0.707107, -0.707107, 0.707107, 40.049565, -553.571965)"/>
  <path d="M 575.503 416.421 C 577.705 414.22 581.336 413.097 584.844 413.097 C 588.352 413.097 591.983 414.22 594.185 416.421 C 596.428 418.665 596.449 423.42 595.915 427.417 C 595.38 431.422 594.487 434.302 594.331 434.823 L 594.331 452.223 L 630.278 452.223 L 630.278 471.197 L 594.331 471.197 L 594.331 507.144 L 575.357 507.144 L 575.357 471.197 L 539.409 471.197 L 539.409 452.223 L 575.357 452.223 L 575.357 434.823 C 575.201 434.301 574.308 431.422 573.773 427.417 C 573.239 423.42 573.26 418.665 575.503 416.421 Z M 574.764 427.285 C 575.288 431.208 576.335 434.602 576.335 434.602 L 576.357 434.673 L 576.357 453.223 L 540.409 453.223 L 540.409 470.197 L 576.357 470.197 L 576.357 506.144 L 593.331 506.144 L 593.331 470.197 L 629.278 470.197 L 629.278 453.223 L 593.331 453.223 L 593.331 434.674 L 593.353 434.602 C 593.353 434.602 594.4 431.208 594.924 427.285 C 595.45 423.354 595.471 419.122 593.477 417.129 C 591.442 415.093 588.205 414.097 584.844 414.097 C 581.483 414.097 578.246 415.093 576.211 417.129 C 574.217 419.122 574.238 423.354 574.764 427.285 Z" style="fill: none;" transform="matrix(0.707107, 0.707107, -0.707107, 0.707107, 40.049565, -553.571965)"/>
  <path d="M 594.331 416.275 L 594.331 452.223 L 630.278 452.223 L 630.278 471.197 L 594.331 471.197 L 594.331 507.144 L 575.357 507.144 L 575.357 471.197 L 539.409 471.197 L 539.409 452.223 L 575.357 452.223 L 575.357 416.275 Z M 576.357 453.223 L 540.409 453.223 L 540.409 470.197 L 576.357 470.197 L 576.357 506.144 L 593.331 506.144 L 593.331 470.197 L 629.278 470.197 L 629.278 453.223 L 593.331 453.223 L 593.331 417.275 L 576.357 417.275 Z" style="fill: none;" transform="matrix(0.707107, 0.707107, -0.707107, 0.707107, 40.049565, -553.571965)"/>
  <path d="M 594.331 416.275 L 594.331 452.223 L 630.278 452.223 L 630.278 471.197 L 594.331 471.197 L 594.331 507.144 L 575.357 507.144 L 575.357 471.197 L 539.409 471.197 L 539.409 452.223 L 575.357 452.223 L 575.357 416.275 Z M 576.357 453.223 L 540.409 453.223 L 540.409 470.197 L 576.357 470.197 L 576.357 506.144 L 593.331 506.144 L 593.331 470.197 L 629.278 470.197 L 629.278 453.223 L 593.331 453.223 L 593.331 417.275 L 576.357 417.275 Z" style="fill: none;" transform="matrix(0.707107, 0.707107, -0.707107, 0.707107, 40.049565, -553.571965)"/>
  <path d="M 594.331 416.275 L 594.331 452.223 L 630.278 452.223 L 630.278 471.197 L 594.331 471.197 L 594.331 507.144 L 575.357 507.144 L 575.357 471.197 L 539.409 471.197 L 539.409 452.223 L 575.357 452.223 L 575.357 416.275 Z M 576.357 453.223 L 540.409 453.223 L 540.409 470.197 L 576.357 470.197 L 576.357 506.144 L 593.331 506.144 L 593.331 470.197 L 629.278 470.197 L 629.278 453.223 L 593.331 453.223 L 593.331 417.275 L 576.357 417.275 Z" style="fill: none;" transform="matrix(0.707107, 0.707107, -0.707107, 0.707107, 40.049565, -553.571965)"/>
  <path d="M 594.331 416.275 L 594.331 452.223 L 630.278 452.223 L 630.278 471.197 L 594.331 471.197 L 594.331 507.144 L 575.357 507.144 L 575.357 471.197 L 539.409 471.197 L 539.409 452.223 L 575.357 452.223 L 575.357 416.275 Z M 576.357 453.223 L 540.409 453.223 L 540.409 470.197 L 576.357 470.197 L 576.357 506.144 L 593.331 506.144 L 593.331 470.197 L 629.278 470.197 L 629.278 453.223 L 593.331 453.223 L 593.331 417.275 L 576.357 417.275 Z" style="fill: none;" transform="matrix(0.707107, 0.707107, -0.707107, 0.707107, 40.049565, -553.571965)"/>
  <path d="M 594.331 416.275 L 594.331 452.223 L 630.278 452.223 L 630.278 471.197 L 594.331 471.197 L 594.331 507.144 L 575.357 507.144 L 575.357 471.197 L 539.409 471.197 L 539.409 452.223 L 575.357 452.223 L 575.357 416.275 Z M 576.357 453.223 L 540.409 453.223 L 540.409 470.197 L 576.357 470.197 L 576.357 506.144 L 593.331 506.144 L 593.331 470.197 L 629.278 470.197 L 629.278 453.223 L 593.331 453.223 L 593.331 417.275 L 576.357 417.275 Z" style="fill: none;" transform="matrix(0.707107, 0.707107, -0.707107, 0.707107, 40.049565, -553.571965)"/>
  <path d="M 594.331 416.275 L 594.331 452.223 L 630.278 452.223 L 630.278 471.197 L 594.331 471.197 L 594.331 507.144 L 575.357 507.144 L 575.357 471.197 L 539.409 471.197 L 539.409 452.223 L 575.357 452.223 L 575.357 416.275 Z M 576.357 453.223 L 540.409 453.223 L 540.409 470.197 L 576.357 470.197 L 576.357 506.144 L 593.331 506.144 L 593.331 470.197 L 629.278 470.197 L 629.278 453.223 L 593.331 453.223 L 593.331 417.275 L 576.357 417.275 Z" style="fill: none;" transform="matrix(0.707107, 0.707107, -0.707107, 0.707107, 40.049565, -553.571965)"/>
</svg>
