<?xml version="1.0" encoding="utf-8"?>
<svg viewBox="0 0 500 500" width="500" height="500" xmlns="http://www.w3.org/2000/svg">
  <path d="M 450 400 C 450 427.614 360.457 450 250 450 C 139.543 450 50 427.614 50 400 L 50 340 C 50 367.614 139.543 390 250 390 C 360.457 390 450 367.614 450 340 Z M 450 310 C 450 337.614 360.457 360 250 360 C 139.543 360 50 337.614 50 310 L 50 260 C 50 287.614 139.543 310 250 310 C 360.457 310 450 287.614 450 260 Z M 450 230 C 450 257.614 360.457 280 250 280 C 139.543 280 50 257.614 50 230 C 50 230.005 50 180.01 50 180.015 C 50.033 207.622 139.564 230 250 230 C 360.457 230 450 207.614 450 180 Z M 450 150 C 450 177.614 360.457 200 250 200 C 139.543 200 50 177.614 50 150 L 50 100 C 50 72.386 139.543 50 250 50 C 360.457 50 450 72.386 450 100 Z" style="fill: rgb(255, 255, 255);"/>
</svg>
