<?xml version="1.0" encoding="utf-8"?>
<svg viewBox="0 0 500 500" width="500" height="500" xmlns="http://www.w3.org/2000/svg">
  <path d="M 363.229 336.77 L 450 250 L 363.23 163.229 C 355.923 155.923 355.923 144.077 363.23 136.771 L 366.06 133.94 C 373.367 126.634 385.213 126.634 392.519 133.94 L 486.771 228.193 C 487.73 229.152 488.563 230.189 489.271 231.284 C 494.757 235.708 498.266 242.484 498.266 250.08 C 498.266 257.779 494.661 264.636 489.046 269.055 C 488.389 270.025 487.631 270.947 486.771 271.807 L 392.518 366.059 C 385.212 373.366 373.366 373.366 366.06 366.059 L 363.229 363.229 C 355.923 355.923 355.923 344.077 363.229 336.77 Z M 13.229 228.192 L 107.482 133.939 C 114.788 126.633 126.634 126.633 133.94 133.939 L 136.771 136.77 C 144.078 144.077 144.078 155.923 136.771 163.229 L 50 250 L 136.771 336.771 C 144.077 344.078 144.077 355.924 136.771 363.23 L 133.941 366.06 C 126.634 373.367 114.788 373.367 107.482 366.06 L 13.23 271.808 C 12.305 270.883 11.497 269.886 10.806 268.834 C 5.276 264.411 1.734 257.607 1.734 249.976 C 1.734 242.314 5.304 235.487 10.872 231.066 C 11.548 230.051 12.334 229.087 13.229 228.192 Z M 311.87 104.926 L 225.711 405.4 C 222.863 415.332 212.502 421.075 202.569 418.227 L 201.278 417.857 C 191.346 415.009 185.603 404.648 188.451 394.716 L 274.61 94.243 C 277.458 84.31 287.819 78.567 297.751 81.415 L 299.042 81.785 C 308.975 84.633 314.718 94.994 311.87 104.926 Z" style="fill: rgb(255, 255, 255);"/>
</svg>
