<?xml version="1.0" standalone="no"?>
<!DOCTYPE svg PUBLIC "-//W3C//DTD SVG 20010904//EN"
 "http://www.w3.org/TR/2001/REC-SVG-20010904/DTD/svg10.dtd">
<svg version="1.0" xmlns="http://www.w3.org/2000/svg"
 width="512.000000pt" height="512.000000pt" viewBox="0 0 512.000000 512.000000"
 preserveAspectRatio="xMidYMid meet">

<g transform="translate(0.000000,512.000000) scale(0.100000,-0.100000)"
fill="#FFFFFF" stroke="none">
<path d="M2325 5109 c-474 -45 -925 -221 -1314 -512 -124 -92 -396 -364 -488
-488 -696 -932 -696 -2166 0 -3098 92 -124 364 -396 488 -488 932 -696 2166
-696 3098 0 124 92 396 364 488 488 696 932 696 2166 0 3098 -92 124 -364 396
-488 488 -520 388 -1158 571 -1784 512z m-181 -1415 c9 -20 15 -38 13 -40 -2
-2 -50 -17 -106 -34 -181 -54 -380 -161 -501 -270 l-45 -41 95 47 c198 97 405
166 605 201 158 27 569 25 730 -4 199 -36 342 -84 590 -197 l80 -36 -40 36
c-126 114 -335 220 -547 279 -32 8 -58 18 -58 20 0 2 8 20 17 40 19 40 8 39
168 9 149 -29 346 -114 510 -221 80 -52 106 -90 192 -278 163 -354 284 -854
310 -1280 l6 -100 -76 -72 c-176 -167 -410 -284 -666 -333 -53 -10 -121 -20
-151 -22 l-54 -3 -58 75 c-32 41 -57 79 -55 84 2 5 19 15 38 22 147 50 349
177 471 294 l83 80 -79 -51 c-103 -67 -278 -151 -395 -189 -215 -70 -508 -108
-747 -96 -386 18 -676 103 -959 281 -102 64 -90 46 40 -65 126 -107 235 -171
442 -261 l32 -14 -60 -80 -60 -80 -57 3 c-190 11 -459 99 -623 205 -77 49
-200 149 -239 193 -32 37 -32 37 -25 118 42 526 163 1005 345 1367 68 135 85
156 168 210 178 117 463 223 638 238 6 1 18 -15 28 -35z"/>
<path d="M2000 2684 c-45 -19 -106 -78 -133 -129 -18 -33 -22 -56 -22 -140 0
-114 14 -152 82 -217 126 -122 315 -74 390 99 23 52 23 184 0 236 -58 134
-200 201 -317 151z"/>
<path d="M2934 2676 c-95 -44 -148 -137 -148 -261 0 -124 53 -217 148 -261 97
-45 197 -25 268 54 64 71 73 96 73 207 0 114 -14 152 -82 217 -74 71 -166 87
-259 44z"/>
</g>
</svg>
