<?xml version="1.0" encoding="UTF-8"?>
<!DOCTYPE svg PUBLIC "-//W3C//DTD SVG 1.1//EN" "http://www.w3.org/Graphics/SVG/1.1/DTD/svg11.dtd">
<svg xmlns="http://www.w3.org/2000/svg" version="1.1" width="1024px" height="1024px" style="shape-rendering:geometricPrecision; text-rendering:geometricPrecision; image-rendering:optimizeQuality; fill-rule:evenodd; clip-rule:evenodd" xmlns:xlink="http://www.w3.org/1999/xlink">
<g><path style="opacity:0.993" fill="#fefffe" d="M 472.5,-0.5 C 498.5,-0.5 524.5,-0.5 550.5,-0.5C 700.685,14.0906 822.852,79.7572 917,196.5C 978.211,278.026 1013.71,370.026 1023.5,472.5C 1023.5,498.5 1023.5,524.5 1023.5,550.5C 1008.17,704.366 939.836,828.533 818.5,923C 738.986,981.199 649.652,1014.7 550.5,1023.5C 524.5,1023.5 498.5,1023.5 472.5,1023.5C 318.618,1008.16 194.451,939.829 100,818.5C 41.8013,738.986 8.30134,649.652 -0.5,550.5C -0.5,524.5 -0.5,498.5 -0.5,472.5C 14.0937,322.297 79.7603,200.13 196.5,106C 278.016,44.7957 370.016,9.29567 472.5,-0.5 Z M 772.5,229.5 C 773.492,229.328 774.158,229.662 774.5,230.5C 775.492,230.328 776.158,230.662 776.5,231.5C 780.488,232.65 783.488,234.983 785.5,238.5C 786.721,239.028 787.887,239.695 789,240.5C 790.879,242.527 792.046,244.86 792.5,247.5C 793.338,247.842 793.672,248.508 793.5,249.5C 794.338,249.842 794.672,250.508 794.5,251.5C 795.743,253.964 796.743,256.63 797.5,259.5C 798.833,427.833 798.833,596.167 797.5,764.5C 796.743,767.37 795.743,770.036 794.5,772.5C 794.672,773.492 794.338,774.158 793.5,774.5C 793.672,775.492 793.338,776.158 792.5,776.5C 791.847,780.805 789.514,783.805 785.5,785.5C 783.488,789.017 780.488,791.35 776.5,792.5C 776.158,793.338 775.492,793.672 774.5,793.5C 774.158,794.338 773.492,794.672 772.5,794.5C 769.723,795.814 766.723,796.814 763.5,797.5C 595.5,798.833 427.5,798.833 259.5,797.5C 256.63,796.743 253.964,795.743 251.5,794.5C 250.508,794.672 249.842,794.338 249.5,793.5C 248.508,793.672 247.842,793.338 247.5,792.5C 243.512,791.35 240.512,789.017 238.5,785.5C 234.486,783.805 232.153,780.805 231.5,776.5C 230.662,776.158 230.328,775.492 230.5,774.5C 229.662,774.158 229.328,773.492 229.5,772.5C 228.257,770.036 227.257,767.37 226.5,764.5C 225.167,596.167 225.167,427.833 226.5,259.5C 227.08,256.553 228.08,253.886 229.5,251.5C 229.328,250.508 229.662,249.842 230.5,249.5C 230.328,248.508 230.662,247.842 231.5,247.5C 232.153,243.195 234.486,240.195 238.5,238.5C 239.028,237.279 239.695,236.113 240.5,235C 242.527,233.121 244.86,231.954 247.5,231.5C 247.842,230.662 248.508,230.328 249.5,230.5C 249.842,229.662 250.508,229.328 251.5,229.5C 253.964,228.257 256.63,227.257 259.5,226.5C 427.833,225.167 596.167,225.167 764.5,226.5C 767.37,227.257 770.036,228.257 772.5,229.5 Z"/></g>
<g><path style="opacity:0.976" fill="#fefffe" d="M 345.5,304.5 C 352.191,304.454 358.857,304.788 365.5,305.5C 367.515,306.924 369.848,307.59 372.5,307.5C 372.842,308.338 373.508,308.672 374.5,308.5C 375.469,309.309 376.302,310.309 377,311.5C 377.333,311.167 377.667,310.833 378,310.5C 379.129,312.141 380.629,313.141 382.5,313.5C 382.833,314.5 383.5,315.167 384.5,315.5C 384.842,316.338 385.508,316.672 386.5,316.5C 388.196,318.525 389.863,320.525 391.5,322.5C 392.167,323.833 393.167,324.833 394.5,325.5C 394.328,326.492 394.662,327.158 395.5,327.5C 395.329,329.993 396.329,331.826 398.5,333C 398.167,333.333 397.833,333.667 397.5,334C 398.691,334.698 399.691,335.531 400.5,336.5C 400.216,338.415 400.549,340.081 401.5,341.5C 402.778,349.83 402.778,358.164 401.5,366.5C 398.81,371.55 396.477,376.55 394.5,381.5C 393.833,381.5 393.5,381.833 393.5,382.5C 392.662,382.842 392.328,383.508 392.5,384.5C 391.833,384.5 391.5,384.833 391.5,385.5C 389.167,387.167 387.167,389.167 385.5,391.5C 384.5,391.833 383.833,392.5 383.5,393.5C 382.508,393.328 381.842,393.662 381.5,394.5C 378.122,395.271 375.288,396.938 373,399.5C 369.644,400.29 366.477,401.29 363.5,402.5C 356.5,402.5 349.5,402.5 342.5,402.5C 340.039,401.469 337.373,400.802 334.5,400.5C 333.531,399.691 332.698,398.691 332,397.5C 331.667,397.833 331.333,398.167 331,398.5C 329.512,396.84 327.679,395.84 325.5,395.5C 325.5,394.833 325.167,394.5 324.5,394.5C 324.158,393.662 323.492,393.328 322.5,393.5C 320.5,390.833 318.167,388.5 315.5,386.5C 315.167,385.5 314.5,384.833 313.5,384.5C 311.503,381.504 309.503,378.504 307.5,375.5C 307.737,374.209 307.404,373.209 306.5,372.5C 306.59,369.848 305.924,367.515 304.5,365.5C 303.167,357.833 303.167,350.167 304.5,342.5C 305.451,341.081 305.784,339.415 305.5,337.5C 306.338,337.158 306.672,336.492 306.5,335.5C 307.404,334.791 307.737,333.791 307.5,332.5C 309.189,329.3 311.189,326.3 313.5,323.5C 314.167,323.5 314.5,323.167 314.5,322.5C 317.5,320.167 320.167,317.5 322.5,314.5C 323.167,314.5 323.5,314.167 323.5,313.5C 326.507,310.995 329.84,308.995 333.5,307.5C 334.791,307.737 335.791,307.404 336.5,306.5C 339.727,306.324 342.727,305.657 345.5,304.5 Z"/></g>
<g><path style="opacity:0.984" fill="#fefffe" d="M 649.5,437.5 C 650.209,438.404 651.209,438.737 652.5,438.5C 654.214,439.738 656.214,440.405 658.5,440.5C 659.209,441.404 660.209,441.737 661.5,441.5C 664.491,443.974 667.491,445.64 670.5,446.5C 670.842,447.338 671.508,447.672 672.5,447.5C 673.768,449.047 675.435,450.047 677.5,450.5C 677.5,451.167 677.833,451.5 678.5,451.5C 678.541,453.745 679.375,454.412 681,453.5C 682.076,456.079 683.909,457.746 686.5,458.5C 686.833,459.5 687.5,460.167 688.5,460.5C 688.351,461.552 688.517,462.552 689,463.5C 692.66,467.21 695.826,471.21 698.5,475.5C 698.328,476.492 698.662,477.158 699.5,477.5C 699.328,478.492 699.662,479.158 700.5,479.5C 702.554,484.886 704.554,490.219 706.5,495.5C 706.263,496.791 706.596,497.791 707.5,498.5C 707.676,501.727 708.343,504.727 709.5,507.5C 709.198,510.059 709.532,512.393 710.5,514.5C 712.134,526.439 713.301,538.439 714,550.5C 714.5,605.166 714.667,659.832 714.5,714.5C 685.833,714.5 657.167,714.5 628.5,714.5C 628.667,661.499 628.5,608.499 628,555.5C 627.688,549.079 626.188,543.079 623.5,537.5C 623.737,536.209 623.404,535.209 622.5,534.5C 622.741,532.102 622.074,530.102 620.5,528.5C 620.672,527.508 620.338,526.842 619.5,526.5C 619.5,525.833 619.167,525.5 618.5,525.5C 617.581,522.911 615.914,520.911 613.5,519.5C 612.833,518.167 611.833,517.167 610.5,516.5C 605.803,512.04 600.137,509.706 593.5,509.5C 587.167,508.167 580.833,508.167 574.5,509.5C 568.043,509.575 562.377,511.575 557.5,515.5C 556.833,515.5 556.5,515.833 556.5,516.5C 555.508,516.328 554.842,516.662 554.5,517.5C 553.833,517.5 553.5,517.833 553.5,518.5C 549.833,518.833 547.833,520.833 547.5,524.5C 546.5,524.833 545.833,525.5 545.5,526.5C 544.662,526.842 544.328,527.508 544.5,528.5C 542.499,531.853 540.666,534.853 539,537.5C 538.023,539.74 537.523,542.073 537.5,544.5C 535.946,548.567 535.28,552.9 535.5,557.5C 534.501,609.664 534.168,661.997 534.5,714.5C 505.833,714.5 477.167,714.5 448.5,714.5C 448.5,623.167 448.5,531.833 448.5,440.5C 475.833,440.5 503.167,440.5 530.5,440.5C 530.333,452.838 530.5,465.171 531,477.5C 532.879,475.473 534.046,473.14 534.5,470.5C 535.5,470.167 536.167,469.5 536.5,468.5C 537.338,468.158 537.672,467.492 537.5,466.5C 540.167,465.167 542.167,463.167 543.5,460.5C 544.833,459.833 545.833,458.833 546.5,457.5C 549.178,455.816 551.512,453.816 553.5,451.5C 554.5,451.167 555.167,450.5 555.5,449.5C 561.362,446.636 567.028,443.636 572.5,440.5C 573.492,440.672 574.158,440.338 574.5,439.5C 577.152,439.59 579.485,438.924 581.5,437.5C 586.862,436.524 592.195,435.357 597.5,434C 603,433.833 608.5,433.667 614,433.5C 619.911,433.525 625.578,434.192 631,435.5C 632.062,434.903 633.228,434.57 634.5,434.5C 639.261,436.386 644.261,437.386 649.5,437.5 Z"/></g>
<g><path style="opacity:0.982" fill="#fefffe" d="M 395.5,440.5 C 395.5,531.833 395.5,623.167 395.5,714.5C 366.833,714.5 338.167,714.5 309.5,714.5C 309.5,623.167 309.5,531.833 309.5,440.5C 338.167,440.5 366.833,440.5 395.5,440.5 Z"/></g>
</svg>
