<?xml version="1.0" standalone="no"?>
<!DOCTYPE svg PUBLIC "-//W3C//DTD SVG 20010904//EN"
 "http://www.w3.org/TR/2001/REC-SVG-20010904/DTD/svg10.dtd">
<svg version="1.0" xmlns="http://www.w3.org/2000/svg"
 width="320.000000pt" height="320.000000pt" viewBox="0 0 320.000000 320.000000"
 preserveAspectRatio="xMidYMid meet">

<g transform="translate(0.000000,320.000000) scale(0.100000,-0.100000)"
fill="#FFFFFF" stroke="none">
<path d="M1475 3194 c-164 -16 -370 -59 -422 -88 -16 -8 -77 -35 -137 -60
-300 -126 -625 -447 -756 -747 -23 -52 -50 -111 -60 -131 -23 -44 -63 -198
-81 -313 -20 -118 -17 -417 5 -535 21 -113 53 -235 71 -270 8 -14 37 -76 65
-138 98 -221 271 -429 500 -602 85 -65 135 -92 341 -188 143 -67 389 -112 611
-112 178 0 442 49 564 105 279 128 395 206 564 381 131 135 227 274 292 418
27 61 58 129 68 151 26 56 57 194 76 338 33 250 -6 586 -91 772 -12 28 -37 84
-55 125 -92 212 -304 459 -535 622 -69 48 -211 128 -229 128 -3 0 -39 15 -79
34 -77 37 -225 77 -342 95 -79 12 -309 21 -370 15z m874 -864 c19 -5 50 -24
68 -42 44 -43 57 -92 44 -173 -17 -112 -70 -175 -275 -326 -89 -66 -233 -172
-321 -238 -188 -140 -209 -151 -272 -151 -62 1 -81 12 -286 164 -95 70 -239
178 -322 240 -203 151 -259 226 -260 346 0 85 32 145 90 171 38 17 85 19 770
19 449 0 743 -4 764 -10z m-1442 -604 c56 -42 105 -76 110 -76 4 0 31 -20 58
-45 28 -25 54 -45 58 -45 5 0 36 -21 69 -47 247 -194 302 -226 393 -226 91 0
146 32 393 226 33 26 65 47 70 47 5 0 32 20 58 45 27 25 53 45 57 45 13 0 219
155 251 189 22 23 32 28 38 19 11 -19 10 -826 -2 -867 -13 -46 -65 -99 -110
-111 -47 -13 -1463 -13 -1510 0 -45 12 -97 65 -110 111 -11 37 -14 836 -4 864
6 14 12 11 43 -18 20 -19 82 -69 138 -111z"/>
</g>
</svg>
