<?xml version="1.0" standalone="no"?>
<!DOCTYPE svg PUBLIC "-//W3C//DTD SVG 20010904//EN"
 "http://www.w3.org/TR/2001/REC-SVG-20010904/DTD/svg10.dtd">
<svg version="1.0" xmlns="http://www.w3.org/2000/svg"
 width="512.000000pt" height="512.000000pt" viewBox="0 0 512.000000 512.000000"
 preserveAspectRatio="xMidYMid meet">
<metadata>
Created by potrace 1.16, written by Peter Selinger 2001-2019
</metadata>
<g transform="translate(0.000000,512.000000) scale(0.100000,-0.100000)"
fill="#717171" stroke="none">
<path d="M1532 5089 c-69 -34 -104 -71 -138 -144 l-24 -50 0 -572 0 -573 -573
0 -574 0 -61 -31 c-69 -34 -104 -71 -138 -144 l-24 -50 0 -1651 0 -1651 31
-61 c34 -69 71 -104 144 -138 l50 -24 1650 0 1650 0 50 24 c73 34 110 69 144
138 l31 61 0 574 0 573 573 0 572 0 50 24 c73 34 110 69 144 138 l31 61 0
1652 0 1652 -31 61 c-34 69 -71 104 -144 138 l-50 24 -1651 0 -1651 0 -61 -31z
m3188 -1844 l0 -1475 -1475 0 -1475 0 0 1475 0 1475 1475 0 1475 0 0 -1475z
m-3350 -772 l0 -878 24 -50 c34 -73 69 -110 138 -144 l61 -31 879 0 878 0 0
-485 0 -485 -1475 0 -1475 0 0 1475 0 1475 485 0 485 0 0 -877z"/>
<path d="M2797 4155 c-136 -48 -173 -242 -65 -342 54 -50 75 -53 415 -53 l318
0 -646 -647 c-410 -412 -652 -661 -662 -685 -34 -73 -13 -183 44 -235 56 -51
154 -68 227 -38 26 11 235 214 685 663 l647 647 0 -318 c0 -340 3 -361 53
-415 77 -83 227 -83 304 0 54 57 53 50 53 693 0 529 -2 600 -16 628 -23 45
-53 76 -96 98 -35 18 -66 19 -630 19 -476 -1 -601 -4 -631 -15z"/>
</g>
</svg>
