<?xml version="1.0" encoding="utf-8"?>
<svg viewBox="0 0 500 500" width="500" height="500" xmlns="http://www.w3.org/2000/svg">
  <path d="M 148.62 203.427 C 148.62 203.427 154.844 194.156 163.932 185.539 C 173.011 176.93 185.144 168.936 196.76 171.479 C 200.172 172.271 202.401 173.868 203.514 175.867 C 204.632 177.873 204.719 180.398 204.088 182.895 C 202.834 187.849 198.717 193.26 194.218 196.466 C 184.368 203.402 149.046 204.206 149.046 204.206 L 148.082 204.228 Z M 193.64 195.65 C 198.029 192.549 201.913 187.414 203.118 182.65 C 203.716 180.287 203.647 178.16 202.641 176.353 C 201.63 174.539 199.768 173.163 196.54 172.455 C 185.312 169.839 173.637 177.714 164.62 186.265 C 155.611 194.807 151.714 200.761 150.008 203.18 C 155.755 203.003 184.068 202.494 193.64 195.65 Z" style="fill: none;"/>
  <path d="M 76.109 70.013 L 52.154 63.023 L 37.275 83.057 L 36.52 58.115 L 12.869 50.154 L 36.358 41.729 L 36.619 16.776 L 51.892 36.511 L 75.704 29.05 L 61.654 49.672 Z M 155.283 58 L 152.252 43.324 L 137.436 41.067 L 150.458 33.648 L 148.026 18.86 L 159.106 28.952 L 172.418 22.07 L 166.244 35.725 L 176.904 46.26 L 162.008 44.607 Z M 443.586 95.131 L 408.072 83.466 L 384.792 112.715 L 384.91 75.333 L 349.901 62.233 L 385.489 50.793 L 387.131 13.448 L 409.006 43.76 L 445.031 33.781 L 422.963 63.953 Z M 371.31 156.448 C 371.31 156.931 371.306 157.414 371.298 157.896 C 394.432 168.099 410.579 191.235 410.579 218.142 C 410.579 233.099 405.59 246.89 397.185 257.943 C 420.869 274.5 436.359 301.973 436.359 333.063 C 436.359 383.649 395.351 424.657 344.765 424.657 C 305.252 424.657 271.583 399.637 258.736 364.575 C 248.078 403.946 212.1 432.909 169.358 432.909 C 118.224 432.909 76.771 391.456 76.771 340.322 C 76.771 314.606 87.255 291.338 104.183 274.561 C 101.048 264.785 99.355 254.363 99.355 243.546 C 99.355 236.039 100.17 228.723 101.717 221.681 C 87.396 207.996 78.476 188.708 78.476 167.336 C 78.476 125.828 112.125 92.179 153.633 92.179 C 173.997 92.179 192.47 100.278 206.005 113.431 C 221.099 86.449 249.954 68.207 283.069 68.207 C 331.803 68.207 371.31 107.714 371.31 156.448 Z M 129.608 121.508 C 135.28 117.483 150.752 110.735 140.078 110.093 C 125.158 109.194 109.549 118.176 109.687 130.35 C 109.797 140.048 123.41 125.906 129.608 121.508 Z M 162.849 188.665 C 193.28 180.281 217.838 171.466 195.607 170.127 C 164.532 168.256 132.023 186.963 132.31 212.319 C 132.539 232.517 147.589 192.869 162.849 188.665 Z M 261.505 95.048 C 268.435 86.693 306.436 80.543 283.855 80.724 C 260.528 80.911 235.025 92.55 235.24 111.55 C 235.411 126.686 248.035 111.287 261.505 95.048 Z M 312.274 273.223 C 323.82 265.03 361.987 253.998 340.261 252.69 C 309.891 250.862 285.771 275.22 286.052 300 C 286.275 319.74 299.658 282.175 312.274 273.223 Z M 124.918 287.576 C 134.557 280.736 165.948 275.844 151.644 272.452 C 126.93 266.592 106.682 287.295 100.002 306.874 C 95.077 321.309 114.386 295.049 124.918 287.576 Z M 72.669 274.075 L 46.728 267.654 L 31.693 289.747 L 29.784 263.091 L 4.127 255.619 L 28.887 245.566 L 28.066 218.856 L 45.278 239.297 L 70.427 230.262 L 56.304 252.949 Z M 479.688 239.616 L 457.256 244.983 L 454.493 267.883 L 442.458 248.207 L 419.825 252.657 L 434.818 235.129 L 423.593 214.979 L 444.896 223.822 L 460.59 206.919 L 458.763 229.912 Z M 452.445 452.749 L 432.772 446.831 L 420.386 463.222 L 419.935 442.683 L 400.519 435.968 L 419.913 429.192 L 420.3 408.652 L 432.737 425.004 L 452.391 419.023 L 440.684 435.905 Z M 292.195 461.563 L 271.696 462.007 L 264.988 481.383 L 258.232 462.024 L 237.731 461.631 L 254.055 449.224 L 248.093 429.606 L 264.938 441.296 L 281.753 429.563 L 275.84 449.196 Z M 18.167 452.749 L 36.15 425.845 L 17.172 399.634 L 48.316 408.422 L 67.38 382.273 L 68.646 414.61 L 99.406 424.661 L 69.044 435.856 L 68.99 468.217 L 48.96 442.8 Z" style="fill: rgb(255, 255, 255);"/>
  <path style="fill: rgb(255, 255, 255); stroke: rgb(255, 255, 255);" d="M 131.116 76.724"/>
</svg>
