<?xml version="1.0" standalone="no"?>
<!DOCTYPE svg PUBLIC "-//W3C//DTD SVG 20010904//EN"
 "http://www.w3.org/TR/2001/REC-SVG-20010904/DTD/svg10.dtd">
<svg version="1.0" xmlns="http://www.w3.org/2000/svg"
 width="980.000000pt" height="982.000000pt" viewBox="0 0 980.000000 982.000000"
 preserveAspectRatio="xMidYMid meet">

<g transform="translate(0.000000,982.000000) scale(0.100000,-0.100000)"
fill="#FFFFFF" stroke="none">
<path d="M4445 9794 c-345 -42 -515 -73 -754 -135 -528 -136 -1075 -375 -1488
-650 -583 -387 -1157 -982 -1494 -1546 -92 -154 -281 -537 -363 -734 -231
-560 -346 -1159 -346 -1804 0 -816 160 -1495 521 -2216 397 -794 999 -1462
1736 -1927 347 -219 807 -437 1153 -546 278 -88 654 -166 981 -203 219 -25
801 -25 1014 0 979 115 1823 462 2556 1051 1083 871 1732 2118 1828 3514 49
710 -80 1515 -344 2142 -493 1172 -1311 2048 -2409 2581 -479 232 -1088 411
-1561 458 -318 32 -834 39 -1030 15z m-1264 -1729 c46 -8 145 -25 219 -38 271
-48 280 -62 435 -632 74 -272 222 -873 235 -955 15 -92 6 -133 -48 -216 -66
-102 -160 -201 -336 -356 -207 -181 -236 -214 -236 -274 0 -60 47 -183 145
-384 365 -740 801 -1242 1470 -1688 210 -140 306 -194 378 -212 98 -25 155 9
415 253 402 375 454 417 509 417 49 0 152 -43 268 -113 236 -141 848 -550
1063 -709 104 -77 122 -105 122 -188 0 -162 -118 -506 -231 -672 -94 -138
-254 -262 -474 -368 -225 -109 -386 -152 -631 -170 -288 -21 -400 -11 -570 46
-248 84 -890 396 -1239 602 -816 483 -1552 1294 -2103 2319 -105 195 -293 575
-360 728 -94 213 -161 433 -203 664 -30 166 -38 483 -15 641 32 214 83 377
178 561 80 156 189 298 344 449 221 214 373 298 560 309 12 0 59 -6 105 -14z"/>
</g>
</svg>
