<?xml version="1.0" encoding="UTF-8"?>
<!DOCTYPE svg PUBLIC "-//W3C//DTD SVG 1.1//EN" "http://www.w3.org/Graphics/SVG/1.1/DTD/svg11.dtd">
<svg xmlns="http://www.w3.org/2000/svg" version="1.1" width="1023px" height="1024px" style="shape-rendering:geometricPrecision; text-rendering:geometricPrecision; image-rendering:optimizeQuality; fill-rule:evenodd; clip-rule:evenodd" xmlns:xlink="http://www.w3.org/1999/xlink">
<g><path style="opacity:0.998" fill="#fefffe" d="M 466.5,-0.5 C 496.167,-0.5 525.833,-0.5 555.5,-0.5C 720.973,17.9607 849.806,95.9607 942,233.5C 989.579,309.07 1016.41,391.403 1022.5,480.5C 1022.5,500.833 1022.5,521.167 1022.5,541.5C 1009.25,701.192 939.255,829.359 812.5,926C 731.451,983.964 641.117,1016.46 541.5,1023.5C 521.167,1023.5 500.833,1023.5 480.5,1023.5C 309.066,1008.74 175.566,930.403 80,788.5C 32.4213,712.93 5.58794,630.597 -0.5,541.5C -0.5,521.167 -0.5,500.833 -0.5,480.5C 12.7454,320.808 82.7454,192.641 209.5,96C 286.34,40.6599 372.007,8.49321 466.5,-0.5 Z M 403.5,307.5 C 429.167,307.5 454.833,307.5 480.5,307.5C 497.529,365.773 522.363,420.439 555,471.5C 556.041,473.585 557.541,475.252 559.5,476.5C 570.513,438.283 591.18,406.45 621.5,381C 663.009,351.744 708.342,344.077 757.5,358C 823.654,382.111 860.154,429.277 867,499.5C 867.358,566.964 838.192,617.13 779.5,650C 749.373,664.158 717.707,668.825 684.5,664C 655.422,660.087 628.588,650.254 604,634.5C 592.411,689.779 581.077,745.113 570,800.5C 557.073,801.162 544.073,801.496 531,801.5C 517.683,801.659 504.516,801.159 491.5,800C 507.662,724.884 523.996,649.718 540.5,574.5C 519.786,543.733 500.619,512.066 483,479.5C 482.667,496.167 482.333,512.833 482,529.5C 473.28,594.115 438.447,637.948 377.5,661C 308.027,679.305 251.194,660.472 207,604.5C 190.753,581.431 181.419,555.764 179,527.5C 178.5,454.834 178.333,382.167 178.5,309.5C 203.167,309.5 227.833,309.5 252.5,309.5C 252.333,379.167 252.5,448.834 253,518.5C 257.047,551.221 274.547,573.387 305.5,585C 341.206,593.941 369.706,583.441 391,553.5C 396.622,544.642 400.289,534.975 402,524.5C 402.17,452.096 402.67,379.763 403.5,307.5 Z"/></g>
<g><path style="opacity:1" fill="#fefffe" d="M 705.5,429.5 C 743.803,428.351 770.97,445.018 787,479.5C 799.318,524.573 785.151,558.406 744.5,581C 728.176,588.165 711.176,590.165 693.5,587C 668.733,581.781 646.4,571.448 626.5,556C 624.643,554.818 623.643,553.151 623.5,551C 628.423,533.663 632.59,516.163 636,498.5C 642.101,475.125 654.601,455.958 673.5,441C 683.58,435.108 694.246,431.275 705.5,429.5 Z"/></g>
</svg>
